<svg width="18" height="19" viewBox="0 0 18 19" fill="none" xmlns="http://www.w3.org/2000/svg">
<path d="M15.4286 0.0722656H2.07143C1.06585 0.0722656 0.25 0.946643 0.25 2.02436V16.3397C0.25 17.4175 1.06585 18.2918 2.07143 18.2918H15.4286C16.4342 18.2918 17.25 17.4175 17.25 16.3397V2.02436C17.25 0.946643 16.4342 0.0722656 15.4286 0.0722656ZM13.573 6.53045C13.5806 6.64433 13.5806 6.76227 13.5806 6.87614C13.5806 10.4021 11.0761 14.4649 6.49978 14.4649C5.08817 14.4649 3.77902 14.0257 2.67857 13.2693C2.87969 13.2937 3.07321 13.3018 3.27813 13.3018C4.44308 13.3018 5.51317 12.8788 6.36696 12.1631C5.27411 12.1387 4.3558 11.37 4.04085 10.3126C4.42411 10.3736 4.76942 10.3736 5.16406 10.2638C4.02567 10.0158 3.17188 8.94211 3.17188 7.64478V7.61224C3.50201 7.81152 3.88906 7.93352 4.29509 7.94979C3.95373 7.70644 3.6739 7.37631 3.48056 6.98885C3.28722 6.6014 3.18638 6.16867 3.18705 5.72928C3.18705 5.23312 3.30848 4.77763 3.52478 4.38315C4.75045 6.00176 6.59085 7.05915 8.65513 7.17302C8.30223 5.36326 9.56585 3.89512 11.0837 3.89512C11.8009 3.89512 12.446 4.21641 12.9013 4.73696C13.4629 4.62309 14.0018 4.39941 14.4799 4.0944C14.294 4.71256 13.9031 5.23312 13.3871 5.56254C13.8879 5.5056 14.3737 5.35513 14.8214 5.14772C14.4837 5.68048 14.0587 6.15224 13.573 6.53045Z" fill="white"/>
</svg>
