<svg width="30" height="39" fill="none" xmlns="http://www.w3.org/2000/svg"><path d="M14.866.379A14.831 14.831 0 004.369 4.757a14.985 14.985 0 00-4.355 10.55 14.827 14.827 0 002.992 8.958s.405.536.471.613l11.389 13.5L26.26 24.872c.06-.072.466-.606.466-.606l.001-.005a14.822 14.822 0 002.991-8.953 14.985 14.985 0 00-4.355-10.55A14.832 14.832 0 0014.866.379zm0 20.357a5.38 5.38 0 01-3-.915 5.423 5.423 0 01-1.99-2.436 5.454 5.454 0 011.171-5.916 5.375 5.375 0 015.886-1.177 5.407 5.407 0 012.424 2 5.448 5.448 0 01-.674 6.852 5.394 5.394 0 01-3.817 1.592z" fill="#000"/></svg>