<svg width="30" height="39" viewBox="0 0 30 39" fill="none" xmlns="http://www.w3.org/2000/svg">
<path d="M14.8659 0.378906C10.9283 0.383575 7.15325 1.9579 4.36893 4.75654C1.58461 7.55518 0.018333 11.3496 0.0136877 15.3075C0.00897157 18.5419 1.06007 21.6885 3.00573 24.2646C3.00573 24.2646 3.41079 24.8007 3.47695 24.878L14.8659 38.3789L26.2602 24.8713C26.3197 24.7993 26.7261 24.2646 26.7261 24.2646L26.7274 24.2605C28.6721 21.6855 29.7227 18.5404 29.7181 15.3075C29.7135 11.3496 28.1472 7.55518 25.3629 4.75654C22.5785 1.9579 18.8035 0.383575 14.8659 0.378906ZM14.8659 20.736C13.7977 20.736 12.7535 20.4177 11.8654 19.8212C10.9772 19.2247 10.285 18.3768 9.87621 17.3849C9.46743 16.393 9.36048 15.3015 9.56887 14.2484C9.77726 13.1954 10.2916 12.2281 11.047 11.4689C11.8023 10.7097 12.7646 10.1927 13.8123 9.98321C14.8599 9.77375 15.9458 9.88126 16.9327 10.2921C17.9196 10.703 18.7631 11.3988 19.3565 12.2915C19.95 13.1842 20.2667 14.2338 20.2667 15.3075C20.2649 16.7467 19.6953 18.1264 18.6829 19.1441C17.6704 20.1617 16.2977 20.7343 14.8659 20.736Z" fill="black"/>
</svg>
