<svg width="17" height="19" viewBox="0 0 17 19" fill="none" xmlns="http://www.w3.org/2000/svg">
<path d="M3.1041 0.0722656C1.38456 0.0722656 0 1.55616 0 3.39904V14.965C0 16.8079 1.38456 18.2918 3.1041 18.2918H8.95317V11.1691H7.19579V8.60471H8.95317V6.41381C8.95317 4.69252 9.99151 3.11209 12.3834 3.11209C13.3519 3.11209 14.068 3.21173 14.068 3.21173L14.0117 5.60647C14.0117 5.60647 13.2814 5.59907 12.4844 5.59907C11.6218 5.59907 11.4835 6.02501 11.4835 6.73211V8.60473H14.0803L13.9671 11.1691H11.4835V18.2918H13.8959C15.6154 18.2918 17 16.808 17 14.9651V3.39906C17 1.55617 15.6154 0.0722838 13.8959 0.0722838H3.10408L3.1041 0.0722656Z" fill="white"/>
</svg>
