<svg width="19" height="20" viewBox="0 0 19 20" fill="none" xmlns="http://www.w3.org/2000/svg">
<path d="M9.92532 6.42907C8.27273 6.42907 6.92409 7.87448 6.92409 9.64566C6.92409 11.4168 8.27273 12.8622 9.92532 12.8622C11.5779 12.8622 12.9265 11.4168 12.9265 9.64566C12.9265 7.87448 11.5779 6.42907 9.92532 6.42907ZM18.9267 9.64566C18.9267 8.31366 18.938 6.99372 18.8682 5.66413C18.7984 4.11979 18.4697 2.74918 17.416 1.61987C16.36 0.488153 15.0835 0.138261 13.6425 0.0634569C12.3997 -0.0113475 11.1681 0.000717746 9.92757 0.000717746C8.68475 0.000717746 7.45319 -0.0113475 6.21263 0.0634569C4.77168 0.138261 3.49284 0.490566 2.43915 1.61987C1.3832 2.75159 1.05674 4.11979 0.986942 5.66413C0.917147 6.99614 0.928404 8.31607 0.928404 9.64566C0.928404 10.9752 0.917147 12.2976 0.986942 13.6272C1.05674 15.1715 1.38545 16.5421 2.43915 17.6714C3.49509 18.8032 4.77168 19.1531 6.21263 19.2279C7.45544 19.3027 8.687 19.2906 9.92757 19.2906C11.1704 19.2906 12.4019 19.3027 13.6425 19.2279C15.0835 19.1531 16.3623 18.8008 17.416 17.6714C18.4719 16.5397 18.7984 15.1715 18.8682 13.6272C18.9402 12.2976 18.9267 10.9777 18.9267 9.64566ZM9.92532 14.5948C7.36989 14.5948 5.30753 12.3845 5.30753 9.64566C5.30753 6.90685 7.36989 4.6965 9.92532 4.6965C12.4807 4.6965 14.5431 6.90685 14.5431 9.64566C14.5431 12.3845 12.4807 14.5948 9.92532 14.5948ZM14.7322 5.64966C14.1356 5.64966 13.6538 5.13327 13.6538 4.49381C13.6538 3.85435 14.1356 3.33796 14.7322 3.33796C15.3289 3.33796 15.8107 3.85435 15.8107 4.49381C15.8109 4.64565 15.7831 4.79604 15.729 4.93636C15.6748 5.07668 15.5954 5.20417 15.4952 5.31154C15.395 5.41891 15.2761 5.50404 15.1451 5.56206C15.0142 5.62008 14.8739 5.64985 14.7322 5.64966Z" fill="white"/>
</svg>
